<svg width="50" height="50" viewBox="0 0 50 50" fill="none" xmlns="http://www.w3.org/2000/svg">
<circle cx="25" cy="25" r="23.5" stroke="white" stroke-width="3"/>
<path fill-rule="evenodd" clip-rule="evenodd" d="M16.1997 27.8617C16.261 27.8805 16.3234 27.8952 16.3867 27.9056C16.7875 28.85 17.1861 29.7954 17.5824 30.7417C18.295 32.4446 19.0132 34.1984 19.1705 34.7027C19.3674 35.3232 19.5742 35.7454 19.8009 36.0344C19.9185 36.1817 20.053 36.3121 20.2117 36.4112C20.295 36.4617 20.3833 36.5035 20.4752 36.5359C20.9285 36.7059 21.3422 36.6351 21.6015 36.5487C21.7537 36.4969 21.8985 36.4255 22.0321 36.3362L22.0392 36.3333L26.0427 33.8372L30.6681 37.3817C30.7361 37.4336 30.8098 37.4775 30.8891 37.5134C31.4445 37.7542 31.9828 37.8392 32.49 37.7712C32.9943 37.7004 33.3952 37.4893 33.6941 37.2499C34.0371 36.973 34.3106 36.6198 34.4931 36.2186L34.5059 36.1874L34.5101 36.1761L34.513 36.1704V36.1676L34.5144 36.1662C34.5376 36.1047 34.5565 36.0418 34.571 35.9777L38.7927 14.6923C38.8044 14.624 38.811 14.5548 38.8125 14.4855C38.8125 13.8622 38.5774 13.2686 38.0263 12.9102C37.5531 12.6027 37.0275 12.5886 36.6946 12.6141C36.3376 12.6424 36.0061 12.7302 35.7837 12.8011C35.6594 12.8412 35.5366 12.8856 35.4154 12.9342L35.3998 12.9413L11.7216 22.229L11.7188 22.2304C11.6385 22.2594 11.5596 22.292 11.4822 22.3282C11.2944 22.4124 11.1142 22.5129 10.9439 22.6285C10.6223 22.8481 9.88137 23.4516 10.0075 24.4489C10.1066 25.2422 10.6506 25.731 10.9835 25.9662C11.1649 26.0951 11.3377 26.1872 11.4652 26.2481C11.5219 26.2764 11.6437 26.3246 11.6961 26.3472L11.7103 26.3515L16.1997 27.8617ZM36.2285 14.8963H36.2257L36.1889 14.9119L12.4824 24.2123L12.4455 24.2265L12.4314 24.2307C12.388 24.2475 12.3454 24.2664 12.3039 24.2874C12.3435 24.3097 12.3841 24.33 12.4257 24.3483L16.8769 25.8472C16.9555 25.8763 17.0313 25.9123 17.1035 25.9548L31.8043 17.3486L31.8185 17.3415C31.8759 17.3073 31.9344 17.2752 31.9941 17.2452C32.0961 17.1927 32.259 17.1162 32.4432 17.0596C32.5707 17.0199 32.949 16.908 33.357 17.0397C33.5737 17.1074 33.7669 17.2349 33.9143 17.4076C34.0617 17.5803 34.1573 17.7911 34.19 18.0158C34.2427 18.2124 34.2442 18.4192 34.1942 18.6165C34.095 19.0061 33.823 19.3092 33.5751 19.5416C33.3626 19.7399 30.6058 22.3976 27.8872 25.0212L24.1855 28.5912L23.5267 29.2287L31.8454 35.6066C31.9577 35.6535 32.0796 35.6729 32.201 35.6632C32.2621 35.6549 32.3195 35.6293 32.3667 35.5896C32.4241 35.541 32.4733 35.4836 32.5126 35.4196L32.5155 35.4182L36.6096 14.7731C36.4808 14.8048 36.3544 14.8455 36.2314 14.8949L36.2285 14.8963ZM24.2421 32.4545L22.5818 31.1823L22.1795 33.7394L24.2421 32.4545ZM21.0589 28.6578L22.7093 27.0641L26.411 23.4912L27.7895 22.1624L18.5528 27.5698L18.6024 27.686C19.1849 29.0622 19.761 30.4411 20.3307 31.8227L20.7316 29.2727C20.7682 29.0363 20.8835 28.8205 21.0589 28.6578Z" fill="#F5CA2F"/>
</svg>
