<svg width="50" height="50" viewBox="0 0 50 50" fill="none" xmlns="http://www.w3.org/2000/svg">
<circle cx="25" cy="25" r="23.5" stroke="white" stroke-width="3"/>
<path d="M34.9874 14.9558C33.6884 13.6441 32.1413 12.6041 30.4364 11.8963C28.7314 11.1886 26.9026 10.8272 25.0566 10.8333C17.3216 10.8333 11.0174 17.1375 11.0174 24.8725C11.0174 27.3517 11.6691 29.76 12.8874 31.885L10.9041 39.1667L18.3416 37.2117C20.3957 38.3308 22.7049 38.9258 25.0566 38.9258C32.7916 38.9258 39.0957 32.6217 39.0957 24.8867C39.0957 21.1325 37.6366 17.605 34.9874 14.9558ZM25.0566 36.5458C22.9599 36.5458 20.9057 35.9792 19.1066 34.9167L18.6816 34.6617L14.2616 35.8233L15.4374 31.5167L15.1541 31.0775C13.9889 29.2175 13.3704 27.0673 13.3691 24.8725C13.3691 18.4408 18.6107 13.1992 25.0424 13.1992C28.1591 13.1992 31.0916 14.4175 33.2874 16.6275C34.3748 17.7096 35.2366 18.9969 35.8227 20.4147C36.4088 21.8325 36.7075 23.3525 36.7016 24.8867C36.7299 31.3183 31.4882 36.5458 25.0566 36.5458ZM31.4599 27.8192C31.1057 27.6492 29.3774 26.7992 29.0657 26.6717C28.7399 26.5583 28.5132 26.5017 28.2724 26.8417C28.0316 27.1958 27.3657 27.9892 27.1674 28.2158C26.9691 28.4567 26.7566 28.485 26.4024 28.3008C26.0482 28.1308 24.9149 27.7483 23.5832 26.5583C22.5349 25.6233 21.8407 24.4758 21.6282 24.1217C21.4299 23.7675 21.5999 23.5833 21.7841 23.3992C21.9399 23.2433 22.1382 22.9883 22.3082 22.79C22.4782 22.5917 22.5491 22.4358 22.6624 22.2092C22.7757 21.9683 22.7191 21.77 22.6341 21.6C22.5491 21.43 21.8407 19.7017 21.5574 18.9933C21.2741 18.3133 20.9766 18.3983 20.7641 18.3842H20.0841C19.8432 18.3842 19.4749 18.4692 19.1491 18.8233C18.8374 19.1775 17.9307 20.0275 17.9307 21.7558C17.9307 23.4842 19.1916 25.1558 19.3616 25.3825C19.5316 25.6233 21.8407 29.165 25.3541 30.6808C26.1899 31.0492 26.8416 31.2617 27.3516 31.4175C28.1874 31.6867 28.9524 31.6442 29.5616 31.5592C30.2416 31.46 31.6441 30.7092 31.9274 29.8875C32.2249 29.0658 32.2249 28.3717 32.1257 28.2158C32.0266 28.06 31.8141 27.9892 31.4599 27.8192Z" fill="#F5CA2F"/>
</svg>
