<svg width="70" height="70" viewBox="0 0 70 70" fill="none" xmlns="http://www.w3.org/2000/svg">
<path fill-rule="evenodd" clip-rule="evenodd" d="M31.6181 0.247861C30.9074 0.380747 29.599 0.549569 28.7104 0.623251C27.8221 0.696934 27.095 0.863429 27.095 0.993472C27.095 1.12351 26.5716 1.23003 25.9319 1.23003C25.2922 1.23003 24.7689 1.33344 24.7689 1.45987C24.7689 1.58603 24.3618 1.76597 23.8642 1.8593C23.3667 1.95263 22.9596 2.14007 22.9596 2.2758C22.9596 2.41153 22.6688 2.5227 22.3135 2.5227C21.9581 2.5227 21.6673 2.63904 21.6673 2.78123C21.6673 2.92343 21.3184 3.03977 20.8919 3.03977C20.4654 3.03977 20.1165 3.14344 20.1165 3.27038C20.1165 3.39706 19.8257 3.5739 19.4704 3.66309C19.115 3.75229 18.8242 3.93946 18.8242 4.07881C18.8242 4.21842 18.6497 4.33243 18.4365 4.33243C18.2233 4.33243 18.0488 4.44878 18.0488 4.59097C18.0488 4.73316 17.8162 4.8495 17.5319 4.8495C17.2476 4.8495 17.0149 4.96584 17.0149 5.10804C17.0149 5.25023 16.8457 5.36657 16.6389 5.36657C16.4321 5.36657 15.9723 5.65742 15.6169 6.0129C15.2615 6.36839 14.8436 6.65924 14.6883 6.65924C14.5327 6.65924 14.1362 6.95009 13.8069 7.30557C13.4774 7.66106 13.1235 7.95191 13.0206 7.95191C12.7906 7.95191 7.96872 12.7526 7.96872 12.9814C7.96872 13.0714 7.67795 13.4589 7.32256 13.8421C6.96717 14.2255 6.6764 14.6329 6.6764 14.7475C6.6764 14.862 6.38563 15.2467 6.03024 15.6022C5.67485 15.9577 5.38408 16.4176 5.38408 16.6244C5.38408 16.8312 5.26777 17.0006 5.12562 17.0006C4.98346 17.0006 4.86716 17.2333 4.86716 17.5177C4.86716 17.802 4.75085 18.0347 4.60869 18.0347C4.46654 18.0347 4.35023 18.2092 4.35023 18.4225C4.35023 18.6358 4.25641 18.8103 4.14139 18.8103C3.8806 18.8103 3.05791 20.6431 3.05791 21.224C3.05791 21.4606 2.9416 21.6542 2.79945 21.6542C2.65729 21.6542 2.54098 21.945 2.54098 22.3005C2.54098 22.656 2.42597 22.9469 2.28562 22.9469C2.14502 22.9469 1.95582 23.4122 1.86484 23.981C1.77386 24.5498 1.59811 25.0151 1.47405 25.0151C1.34998 25.0151 1.24866 25.4805 1.24866 26.0493C1.24866 26.618 1.14838 27.0834 1.02561 27.0834C0.90284 27.0834 0.729411 27.8107 0.639983 28.6992C0.550813 29.5881 0.367304 30.8968 0.232386 31.6077C-0.0811308 33.2608 -0.0767369 36.6292 0.241432 38.4589C0.377384 39.241 0.557275 40.5499 0.641275 41.3674C0.725276 42.1849 0.89612 42.854 1.02122 42.854C1.14631 42.854 1.24866 43.3775 1.24866 44.0174C1.24866 44.6572 1.36497 45.1808 1.50713 45.1808C1.64928 45.1808 1.76559 45.4494 1.76559 45.7777C1.76559 46.1061 1.93644 46.6004 2.14502 46.8765C2.35386 47.1523 2.52832 47.6399 2.53271 47.96C2.53736 48.2801 2.65729 48.5417 2.79945 48.5417C2.9416 48.5417 3.05791 48.7297 3.05791 48.9592C3.05791 49.4218 4.36703 51.982 4.67331 52.118C4.78005 52.1656 4.86716 52.4272 4.86716 52.6997C4.86716 52.9725 4.9571 53.1953 5.06695 53.1953C5.1768 53.1953 5.48566 53.6025 5.75369 54.1002C6.02171 54.5979 6.33885 55.005 6.45852 55.005C6.57844 55.005 6.6764 55.1553 6.6764 55.3391C6.6764 55.5226 7.08348 56.1046 7.58102 56.6323C8.07857 57.1599 8.48565 57.6553 8.48565 57.7331C8.48565 57.9927 11.5673 60.9513 11.8377 60.9513C11.9842 60.9513 12.1041 61.0759 12.1041 61.2282C12.1041 61.5255 12.7389 62.244 13.0015 62.244C13.0891 62.244 13.4743 62.5348 13.8573 62.8903C14.2406 63.2458 14.6751 63.5367 14.8229 63.5367C14.9708 63.5367 15.2592 63.7693 15.4642 64.0537C15.6691 64.3381 16.0473 64.5708 16.3047 64.5708C16.5621 64.5708 16.8397 64.7453 16.9214 64.9586C17.0033 65.1719 17.2905 65.3464 17.5595 65.3464C17.8286 65.3464 18.0488 65.4627 18.0488 65.6049C18.0488 65.7471 18.2233 65.8635 18.4365 65.8635C18.6497 65.8635 18.8242 65.9798 18.8242 66.122C18.8242 66.2642 19.0651 66.3805 19.3595 66.3805C19.6541 66.3805 20.0695 66.555 20.2827 66.7683C20.4959 66.9816 20.8947 67.1561 21.1687 67.1561C21.4429 67.1561 21.6673 67.2725 21.6673 67.4147C21.6673 67.5569 21.9581 67.6732 22.3135 67.6732C22.6688 67.6732 22.9596 67.7895 22.9596 67.9317C22.9596 68.0739 23.3569 68.1903 23.8428 68.1903C24.3284 68.1903 24.767 68.3141 24.8174 68.4656C24.8678 68.6168 25.4011 68.8066 26.0022 68.8873C26.6032 68.9679 27.095 69.1349 27.095 69.2585C27.095 69.3818 27.9092 69.4829 28.9043 69.4829C29.9381 69.4829 30.7135 69.5938 30.7135 69.7415C30.7135 69.9036 32.3504 70 35.1074 70C37.8644 70 39.5013 69.9036 39.5013 69.7415C39.5013 69.5956 40.2335 69.4829 41.1813 69.4829C42.1291 69.4829 42.8613 69.3702 42.8613 69.2244C42.8613 69.0822 43.2462 68.9659 43.7166 68.9659C44.187 68.9659 44.7975 68.795 45.0735 68.5863C45.3493 68.3774 45.8952 68.2029 46.286 68.1985C46.6768 68.1939 46.9967 68.0739 46.9967 67.9317C46.9967 67.7895 47.3457 67.6732 47.7721 67.6732C48.1986 67.6732 48.5475 67.5569 48.5475 67.4147C48.5475 67.2725 48.7719 67.1561 49.0461 67.1561C49.3201 67.1561 49.7189 66.9816 49.9321 66.7683C50.1453 66.555 50.5025 66.3805 50.7261 66.3805C50.9494 66.3805 51.1321 66.2642 51.1321 66.122C51.1321 65.9798 51.3648 65.8635 51.6491 65.8635C51.9334 65.8635 52.166 65.7471 52.166 65.6049C52.166 65.4627 52.3986 65.3464 52.6829 65.3464C52.9701 65.3464 53.1999 65.174 53.1999 64.9586C53.1999 64.7432 53.4296 64.5708 53.7168 64.5708C54.0011 64.5708 54.2337 64.4545 54.2337 64.3123C54.2337 64.1701 54.3583 64.0537 54.5105 64.0537C54.663 64.0537 54.9497 63.9084 55.1479 63.7306C55.9349 63.0245 56.2869 62.7611 56.4428 62.7611C56.5325 62.7611 57.1145 62.2375 57.7364 61.5977C58.358 60.9578 58.9346 60.4343 59.0174 60.4343C59.2135 60.4343 60.4368 59.2106 60.4368 59.0144C60.4368 58.9317 60.9602 58.3549 61.5999 57.7331C62.2396 57.1111 62.763 56.5255 62.763 56.4316C62.763 56.3375 62.9085 56.0986 63.0861 55.9003C63.8532 55.0449 64.0553 54.7525 64.0553 54.4988C64.0553 54.3507 64.1716 54.2294 64.3138 54.2294C64.4559 54.2294 64.5723 53.9968 64.5723 53.7124C64.5723 53.4251 64.7447 53.1953 64.96 53.1953C65.1753 53.1953 65.3476 52.9655 65.3476 52.6782C65.3476 52.3939 65.464 52.1612 65.6061 52.1612C65.7483 52.1612 65.8646 51.9285 65.8646 51.6441C65.8646 51.3597 65.9809 51.127 66.123 51.127C66.2652 51.127 66.3815 50.9443 66.3815 50.7209C66.3815 50.4972 66.556 50.14 66.7692 49.9267C66.9824 49.7134 67.1569 49.3145 67.1569 49.0404C67.1569 48.7661 67.2732 48.5417 67.4154 48.5417C67.5575 48.5417 67.6738 48.1927 67.6738 47.7661C67.6738 47.3395 67.7901 46.9905 67.9323 46.9905C68.0744 46.9905 68.1944 46.6704 68.199 46.2795C68.2034 45.8886 68.3779 45.3426 68.5867 45.0667C68.7953 44.7906 68.9661 44.18 68.9661 43.7094C68.9661 43.2389 69.0825 42.854 69.2246 42.854C69.3704 42.854 69.4831 42.1215 69.4831 41.1735C69.4831 40.2254 69.5958 39.493 69.7415 39.493C69.9036 39.493 70 37.8557 70 35.0979C70 32.3402 69.9036 30.7029 69.7415 30.7029C69.594 30.7029 69.4831 29.9273 69.4831 28.8931C69.4831 27.859 69.3722 27.0834 69.2246 27.0834C69.0825 27.0834 68.9661 26.7566 68.9661 26.3572C68.9661 25.9577 68.7953 25.4053 68.5867 25.1291C68.3779 24.8533 68.2034 24.2491 68.199 23.7871C68.1944 23.3251 68.0744 22.9469 67.9323 22.9469C67.7901 22.9469 67.6738 22.656 67.6738 22.3005C67.6738 21.945 67.5575 21.6542 67.4154 21.6542C67.2732 21.6542 67.1569 21.4298 67.1569 21.1555C67.1569 20.8814 66.9824 20.4825 66.7692 20.2692C66.556 20.0559 66.3815 19.6405 66.3815 19.3457C66.3815 19.0513 66.2652 18.8103 66.123 18.8103C65.9809 18.8103 65.8646 18.6358 65.8646 18.4225C65.8646 18.2092 65.7483 18.0347 65.6061 18.0347C65.464 18.0347 65.3476 17.8145 65.3476 17.5453C65.3476 17.2762 65.1732 16.989 64.96 16.907C64.7467 16.8253 64.5723 16.5476 64.5723 16.2901C64.5723 16.0326 64.3396 15.6544 64.0553 15.4494C63.771 15.2444 63.5384 14.9558 63.5384 14.808C63.5384 14.6601 63.2476 14.2255 62.8922 13.8421C62.5369 13.4589 62.2461 13.0737 62.2461 12.9861C62.2461 12.7234 61.5278 12.0884 61.2306 12.0884C61.0784 12.0884 60.9538 11.9685 60.9538 11.8219C60.9538 11.5375 57.9892 8.46897 57.7142 8.46897C57.6242 8.46897 57.1554 8.06178 56.6721 7.56411C56.189 7.06643 55.617 6.65924 55.4015 6.65924C55.1856 6.65924 55.0091 6.56125 55.0091 6.44129C55.0091 6.32159 54.602 6.00437 54.1045 5.73627C53.6069 5.46817 53.1999 5.15923 53.1999 5.04935C53.1999 4.93947 52.9672 4.8495 52.6829 4.8495C52.3986 4.8495 52.1647 4.76238 52.1632 4.6556C52.1614 4.54883 51.6961 4.23936 51.1293 3.96764C50.5622 3.69592 50.0983 3.37612 50.0983 3.25668C50.0983 3.13749 49.7494 3.03977 49.3229 3.03977C48.8964 3.03977 48.5475 2.92343 48.5475 2.78123C48.5475 2.63904 48.2859 2.51908 47.966 2.51443C47.646 2.51003 47.1585 2.33552 46.8827 2.12662C46.6067 1.91799 46.1125 1.7471 45.7843 1.7471C45.456 1.7471 45.1875 1.63076 45.1875 1.48856C45.1875 1.34637 44.6641 1.23003 44.0244 1.23003C43.3847 1.23003 42.8613 1.12403 42.8613 0.994506C42.8613 0.864981 42.1924 0.699519 41.3751 0.626613C40.5579 0.553965 39.2493 0.377645 38.4674 0.234676C36.7246 -0.0835792 33.3579 -0.0771162 31.6181 0.247861ZM39.7597 6.4007C39.7597 6.54445 40.4491 6.65924 41.3105 6.65924C42.172 6.65924 42.8613 6.77403 42.8613 6.91777C42.8613 7.05997 43.1438 7.17631 43.4891 7.17631C43.8342 7.17631 44.2911 7.35082 44.5044 7.56411C44.7176 7.7774 45.1329 7.95191 45.4276 7.95191C45.722 7.95191 45.9629 8.06825 45.9629 8.21044C45.9629 8.35263 46.1565 8.46897 46.393 8.46897C46.9737 8.46897 48.806 9.29189 48.806 9.55275C48.806 9.6678 48.9804 9.76164 49.1937 9.76164C49.4069 9.76164 49.5814 9.87798 49.5814 10.0202C49.5814 10.1624 49.76 10.2787 49.9781 10.2787C50.4495 10.2787 51.6098 10.9853 52.1962 11.6293C52.4263 11.8819 52.6904 12.0884 52.7837 12.0884C53.0642 12.0884 58.6276 17.7439 58.6276 18.029C58.6276 18.1743 58.7439 18.2933 58.8861 18.2933C59.0282 18.2933 59.1445 18.4727 59.1445 18.6919C59.1445 19.065 59.3097 19.3261 60.1138 20.2227C60.2916 20.421 60.4368 20.7659 60.4368 20.9895C60.4368 21.2129 60.5532 21.3957 60.6953 21.3957C60.8375 21.3957 60.9538 21.5784 60.9538 21.8018C60.9538 22.0254 61.1282 22.3827 61.3415 22.596C61.5547 22.8093 61.7292 23.2082 61.7292 23.4823C61.7292 23.7566 61.8455 23.981 61.9876 23.981C62.1298 23.981 62.2461 24.33 62.2461 24.7566C62.2461 25.1832 62.3624 25.5322 62.5046 25.5322C62.6467 25.5322 62.7666 25.8523 62.7713 26.2432C62.7757 26.6341 62.9501 27.1801 63.159 27.4559C63.3704 27.7357 63.5384 28.5082 63.5384 29.201C63.5384 29.8849 63.6547 30.4443 63.7969 30.4443C63.9597 30.4443 64.0553 32.168 64.0553 35.0979C64.0553 38.0279 63.9597 39.7516 63.7969 39.7516C63.6547 39.7516 63.5384 40.311 63.5384 40.9948C63.5384 41.6877 63.3704 42.4602 63.159 42.7399C62.9501 43.0158 62.7757 43.5618 62.7713 43.9527C62.7666 44.3436 62.6467 44.6637 62.5046 44.6637C62.3624 44.6637 62.2461 44.9545 62.2461 45.31C62.2461 45.6655 62.1298 45.9564 61.9876 45.9564C61.8455 45.9564 61.7292 46.1668 61.7292 46.4241C61.7292 46.6813 61.5583 47.1174 61.3497 47.3936C61.1409 47.6694 60.9664 48.0988 60.962 48.3478C60.9574 48.5968 60.8375 48.8002 60.6953 48.8002C60.5532 48.8002 60.4368 48.9747 60.4368 49.188C60.4368 49.4013 60.3205 49.5758 60.1784 49.5758C60.0362 49.5758 59.9199 49.7361 59.9199 49.9321C59.9199 50.1278 59.7454 50.4329 59.5322 50.61C59.319 50.7871 59.1445 51.1245 59.1445 51.3602C59.1445 51.5958 58.9119 51.9562 58.6276 52.1612C58.3433 52.3662 58.1107 52.6826 58.1107 52.8646C58.1107 53.0464 57.9861 53.1953 57.8338 53.1953C57.5361 53.1953 56.8183 53.8305 56.8183 54.094C56.8183 54.3029 54.3071 56.8148 54.0983 56.8148C53.8349 56.8148 53.1999 57.5327 53.1999 57.8306C53.1999 57.9828 53.051 58.1074 52.8693 58.1074C52.6873 58.1074 52.371 58.3401 52.166 58.6245C51.961 58.9089 51.5865 59.1416 51.3335 59.1416C51.0807 59.1416 50.8737 59.2556 50.8737 59.3952C50.8737 59.5346 50.5829 59.7217 50.2275 59.8109C49.8721 59.9001 49.5814 60.077 49.5814 60.2036C49.5814 60.3306 49.4069 60.4343 49.1937 60.4343C48.9804 60.4343 48.806 60.5506 48.806 60.6928C48.806 60.835 48.6026 60.9549 48.3537 60.9596C48.1048 60.964 47.6755 61.1385 47.3997 61.3474C47.1236 61.556 46.6876 61.7269 46.4304 61.7269C46.1733 61.7269 45.9629 61.8433 45.9629 61.9855C45.9629 62.1276 45.6721 62.244 45.3167 62.244C44.9613 62.244 44.6706 62.3603 44.6706 62.5025C44.6706 62.6447 44.3506 62.7647 43.9598 62.7693C43.569 62.7737 43.0231 62.9482 42.7473 63.1571C42.4713 63.3658 41.7096 63.5367 41.0544 63.5367C40.3992 63.5367 39.7414 63.6584 39.5925 63.8073C39.4165 63.9834 37.7972 64.0395 34.9531 63.9674C30.2405 63.8482 27.7913 63.561 27.301 63.0705C27.131 62.9004 26.666 62.7611 26.2679 62.7611C25.8699 62.7611 25.5442 62.6447 25.5442 62.5025C25.5442 62.3603 25.2605 62.244 24.9133 62.244C24.5662 62.244 24.2106 62.1276 24.1227 61.9855C24.0348 61.8433 23.7456 61.7269 23.4796 61.7269C23.2139 61.7269 22.8221 61.5524 22.6089 61.3391C22.3956 61.1258 22.0384 60.9513 21.8149 60.9513C21.5916 60.9513 21.4075 60.8642 21.406 60.7574C21.4042 60.6506 20.9389 60.3412 20.3721 60.0695C19.8051 59.7977 19.3411 59.4779 19.3411 59.3585C19.3411 59.2393 19.1085 59.1416 18.8242 59.1416C18.5399 59.1416 18.3073 59.0252 18.3073 58.883C18.3073 58.7409 18.1827 58.6245 18.0305 58.6245C17.6725 58.6245 17.0149 57.9668 17.0149 57.6087C17.0149 57.4565 16.8937 57.3318 16.7454 57.3318C16.4773 57.3318 12.1041 53.0541 12.1041 52.792C12.1041 52.7165 11.8134 52.3639 11.458 52.0084C11.1026 51.6529 10.8118 51.193 10.8118 50.9861C10.8118 50.7793 10.6955 50.61 10.5534 50.61C10.4112 50.61 10.2949 50.3773 10.2949 50.0929C10.2949 49.8085 10.1786 49.5758 10.0364 49.5758C9.89427 49.5758 9.77797 49.4013 9.77797 49.188C9.77797 48.9747 9.68414 48.8002 9.56913 48.8002C9.30834 48.8002 8.48565 46.9675 8.48565 46.3866C8.48565 46.15 8.36934 45.9564 8.22718 45.9564C8.08503 45.9564 7.96872 45.7154 7.96872 45.4209C7.96872 45.1262 7.79426 44.7107 7.58102 44.4975C7.36779 44.2842 7.19333 43.8271 7.19333 43.4819C7.19333 43.1365 7.07702 42.854 6.93486 42.854C6.79116 42.854 6.6764 42.1645 6.6764 41.3028C6.6764 40.4411 6.56164 39.7516 6.41794 39.7516C6.25511 39.7516 6.15947 38.0279 6.15947 35.0979C6.15947 32.168 6.25511 30.4443 6.41794 30.4443C6.56164 30.4443 6.6764 29.7548 6.6764 28.8931C6.6764 28.0314 6.79116 27.3419 6.93486 27.3419C7.07702 27.3419 7.19333 27.0733 7.19333 26.745C7.19333 26.4166 7.36417 25.9223 7.57275 25.6462C7.78159 25.3704 7.95606 24.8828 7.96045 24.5627C7.9651 24.2426 8.08503 23.981 8.22718 23.981C8.36934 23.981 8.48565 23.793 8.48565 23.5635C8.48565 23.1009 9.79477 20.5407 10.101 20.4047C10.2075 20.3571 10.2949 20.1485 10.2949 19.9409C10.2949 19.7333 10.5857 19.2496 10.9411 18.8664C11.2964 18.483 11.5872 18.0704 11.5872 17.9497C11.5872 17.8289 12.1106 17.2214 12.7503 16.5993C13.39 15.9776 13.9134 15.3979 13.9134 15.3113C13.9134 15.1061 14.6053 14.4152 14.8108 14.4152C14.8984 14.4152 15.5944 13.7754 16.3577 12.9933C17.1209 12.2113 17.8441 11.5714 17.9645 11.5714C18.0847 11.5714 18.497 11.2805 18.8803 10.925C19.2633 10.5696 19.7469 10.2787 19.9545 10.2787C20.162 10.2787 20.3706 10.1913 20.4181 10.0848C20.5541 9.77845 23.1137 8.46897 23.576 8.46897C23.8056 8.46897 23.9935 8.35263 23.9935 8.21044C23.9935 8.06825 24.255 7.94829 24.575 7.94363C24.895 7.93924 25.3824 7.76473 25.6582 7.55583C25.9343 7.3472 26.4284 7.17631 26.7567 7.17631C27.0849 7.17631 27.3535 7.05997 27.3535 6.91777C27.3535 6.77558 27.9932 6.65924 28.775 6.65924C29.5569 6.65924 30.1966 6.5429 30.1966 6.4007C30.1966 6.23757 31.9627 6.14217 34.9782 6.14217C37.9937 6.14217 39.7597 6.23757 39.7597 6.4007ZM32.5228 10.0202C32.5228 10.1624 32.2628 10.2787 31.9448 10.2787C31.3488 10.2787 28.5835 11.5502 28.4305 11.8945C28.383 12.0011 28.1214 12.0884 27.849 12.0884C27.5765 12.0884 27.3535 12.1921 27.3535 12.3191C27.3535 12.4457 27.0627 12.6226 26.7073 12.7118C26.3519 12.801 26.0612 12.9881 26.0612 13.1275C26.0612 13.2671 25.8867 13.3811 25.6735 13.3811C25.4602 13.3811 25.2858 13.4975 25.2858 13.6396C25.2858 13.7818 25.0961 13.8982 24.864 13.8982C24.6321 13.8982 24.0583 14.3054 23.589 14.8031C23.1199 15.3007 22.6125 15.7079 22.4618 15.7079C22.1361 15.7079 18.5657 19.2248 18.5657 19.5459C18.5657 19.6679 18.2168 20.133 17.7903 20.5795C17.3639 21.0257 17.0149 21.4585 17.0149 21.541C17.0149 21.6237 16.8697 21.8533 16.6919 22.0516C15.8669 22.9717 15.7226 23.2188 15.7226 23.7116C15.7226 24.0019 15.6063 24.2395 15.4642 24.2395C15.322 24.2395 15.2057 24.4047 15.2057 24.6064C15.2057 25.0676 14.3672 26.5625 14.1072 26.5648C14.0007 26.5656 13.9134 26.8572 13.9134 27.2127C13.9134 27.5682 13.7971 27.859 13.6549 27.859C13.5128 27.859 13.3965 28.3727 13.3965 29.0009C13.3965 29.6845 13.2667 30.1861 13.0734 30.2504C12.833 30.3306 12.7503 31.4066 12.7503 34.4516C12.7503 37.4966 12.833 38.5726 13.0734 38.6528C13.2512 38.712 13.3965 39.0416 13.3965 39.3852C13.3965 39.7288 13.5128 40.0101 13.6549 40.0101C13.7971 40.0101 13.9219 40.3883 13.9323 40.8503C13.9426 41.3123 14.1768 42.0396 14.4523 42.4662C14.7278 42.8927 15.0237 43.4452 15.1096 43.6942C15.1956 43.9432 15.4213 44.1466 15.611 44.1466C15.8009 44.1466 16.3515 44.5538 16.8348 45.0515C17.3179 45.5492 17.8469 45.9564 18.0103 45.9564C18.1736 45.9564 18.3073 46.0727 18.3073 46.2149C18.3073 46.3571 18.4975 46.4734 18.7299 46.4734C18.9625 46.4734 19.422 46.7643 19.7516 47.1198C20.2964 47.7079 21.367 47.9802 21.7254 47.6218C21.8045 47.5425 21.8105 47.2516 21.7384 46.9755C21.6466 46.6249 21.3822 46.4734 20.8617 46.4734C20.452 46.4734 20.1165 46.3571 20.1165 46.2149C20.1165 46.0727 19.9919 45.9564 19.8397 45.9564C19.5425 45.9564 18.8242 45.3214 18.8242 45.0587C18.8242 44.9711 18.5334 44.5859 18.178 44.2027C17.8226 43.8193 17.5319 43.4018 17.5319 43.2749C17.5319 43.1477 17.3158 42.8558 17.0519 42.6257C16.788 42.3958 16.4892 41.946 16.3884 41.6259C16.2874 41.3059 16.0964 41.0442 15.9638 41.0442C15.8312 41.0442 15.7226 39.939 15.7226 38.5882C15.7226 37.123 15.6182 36.1321 15.4642 36.1321C15.3135 36.1321 15.2057 35.2704 15.2057 34.0638C15.2057 32.8572 15.3135 31.9955 15.4642 31.9955C15.6063 31.9955 15.7226 31.5884 15.7226 31.0907C15.7226 30.593 15.8389 30.1858 15.9811 30.1858C16.1232 30.1858 16.2396 29.8008 16.2396 29.3303C16.2396 28.8598 16.4104 28.2491 16.619 27.973C16.8278 27.6972 17.0023 27.2677 17.0067 27.0188C17.0113 26.7698 17.1313 26.5663 17.2734 26.5663C17.4156 26.5663 17.5319 26.2755 17.5319 25.92C17.5319 25.5645 17.6366 25.2737 17.7647 25.2737C17.8927 25.2737 18.2127 24.7507 18.4755 24.1113C18.7384 23.4719 19.0408 22.9484 19.1473 22.9479C19.2538 22.9474 19.3411 22.8003 19.3411 22.6211C19.3411 22.4419 19.6319 21.9815 19.9873 21.5981C20.3427 21.2149 20.6334 20.8388 20.6334 20.7625C20.6334 20.6051 21.514 19.5412 22.3781 18.6547C22.698 18.3266 22.9596 17.9365 22.9596 17.7878C22.9596 17.6392 23.0811 17.5177 23.2297 17.5177C23.3783 17.5177 23.78 17.2558 24.1219 16.936C25.0591 16.0595 25.5055 15.7079 25.681 15.7079C25.9433 15.7079 26.5781 14.9892 26.5781 14.6921C26.5781 14.5399 26.727 14.4152 26.9087 14.4152C27.0906 14.4152 27.407 14.1826 27.612 13.8982C27.8169 13.6138 28.179 13.3811 28.4168 13.3811C28.6546 13.3811 28.9159 13.2066 28.9978 12.9933C29.0795 12.78 29.3827 12.6055 29.6717 12.6055C29.9604 12.6055 30.1966 12.4892 30.1966 12.347C30.1966 12.2048 30.4874 12.0884 30.8428 12.0884C31.1981 12.0884 31.4889 11.9721 31.4889 11.8299C31.4889 11.6877 31.7251 11.5714 32.0139 11.5714C32.3028 11.5714 32.606 11.3969 32.6877 11.1836C32.7696 10.9703 33.1079 10.7958 33.4398 10.7958C33.7717 10.7958 34.1149 10.6794 34.2028 10.5372C34.2907 10.3951 34.6463 10.2787 34.9934 10.2787C35.3405 10.2787 35.6243 10.1624 35.6243 10.0202C35.6243 9.87643 34.935 9.76164 34.0735 9.76164C33.2121 9.76164 32.5228 9.87643 32.5228 10.0202ZM40.6119 12.6182C40.0143 12.7363 39.295 12.9563 39.0133 13.1071C38.7318 13.2578 38.1449 13.3811 37.7091 13.3811C37.2733 13.3811 36.9166 13.4975 36.9166 13.6396C36.9166 13.7818 36.6259 13.8982 36.2705 13.8982C35.9151 13.8982 35.6236 13.9856 35.6228 14.0921C35.6205 14.3522 34.126 15.1909 33.6649 15.1909C33.4633 15.1909 33.2982 15.2788 33.2982 15.3863C33.2982 15.4939 32.92 15.7483 32.4581 15.952C31.9963 16.1557 31.4768 16.446 31.3041 16.597C30.4372 17.3543 30.1966 17.5177 29.949 17.5177C29.8009 17.5177 29.6797 17.634 29.6797 17.7762C29.6797 17.9184 29.5584 18.0347 29.4103 18.0347C29.086 18.0347 28.7476 18.3085 27.0953 19.9091C26.398 20.5844 25.7554 21.1371 25.6673 21.1371C25.4664 21.1371 24.7689 21.8248 24.7689 22.0229C24.7689 22.1038 24.3618 22.6017 23.8642 23.1294C23.3667 23.6571 22.9596 24.239 22.9596 24.4226C22.9596 24.6064 22.8717 24.7566 22.7642 24.7566C22.5011 24.7566 21.8312 26.2993 22.0144 26.4826C22.2028 26.671 22.9596 25.9151 22.9596 25.5384C22.9596 25.3791 23.2504 24.9795 23.6058 24.6501C23.9612 24.3204 24.2519 23.9756 24.2519 23.8833C24.2519 23.6134 26.8185 21.1371 27.0984 21.1371C27.2387 21.1371 27.3535 21.0472 27.3535 20.9373C27.3535 20.8274 27.7606 20.5185 28.2581 20.2504C28.7557 19.9823 29.1627 19.665 29.1627 19.5453C29.1627 19.4254 29.3954 19.3274 29.6797 19.3274C29.964 19.3274 30.1966 19.2111 30.1966 19.0689C30.1966 18.9267 30.3212 18.8103 30.4734 18.8103C30.6259 18.8103 30.9125 18.665 31.1108 18.4872C32.0307 17.6619 32.2777 17.5177 32.7704 17.5177C33.0606 17.5177 33.2987 17.4303 33.2992 17.3238C33.2997 17.2172 33.8231 16.9148 34.4623 16.6518C35.1015 16.3889 35.6243 16.0688 35.6243 15.9409C35.6243 15.8126 35.9151 15.7079 36.2705 15.7079C36.6259 15.7079 36.9174 15.6205 36.9182 15.514C36.9205 15.2539 38.415 14.4152 38.8761 14.4152C39.0777 14.4152 39.2428 14.2989 39.2428 14.1567C39.2428 14.0145 39.7662 13.8982 40.4059 13.8982C41.0456 13.8982 41.569 13.7818 41.569 13.6396C41.569 13.4975 41.8306 13.3793 42.1505 13.3772C42.9195 13.3718 43.4886 12.9933 43.2668 12.6345C43.066 12.3092 42.2025 12.3041 40.6119 12.6182ZM45.4459 16.5288C44.8063 16.6601 43.8468 16.8323 43.3136 16.9114C42.7807 16.9902 42.3444 17.1591 42.3444 17.2863C42.3444 17.4135 42.1449 17.5177 41.9006 17.5177C41.2519 17.5177 39.2428 18.3258 39.2428 18.5869C39.2428 18.7098 38.952 18.8103 38.5967 18.8103C38.2413 18.8103 37.9505 18.9267 37.9505 19.0689C37.9505 19.2111 37.7853 19.3274 37.5837 19.3274C37.1226 19.3274 35.6282 20.1661 35.6259 20.4262C35.6251 20.5327 35.3917 20.6201 35.1074 20.6201C34.8231 20.6201 34.5905 20.7364 34.5905 20.8786C34.5905 21.0208 34.2997 21.1371 33.9443 21.1371C33.5421 21.1371 33.2982 21.2837 33.2982 21.5249C33.2982 21.7382 33.1237 21.9127 32.9105 21.9127C32.6972 21.9127 32.5228 22.0291 32.5228 22.1713C32.5228 22.3135 32.3501 22.4298 32.1387 22.4298C31.7068 22.4298 27.3535 26.6532 27.3535 27.0723C27.3535 27.5301 27.8192 27.3719 28.4403 26.7026C29.4023 25.6659 29.5034 25.5671 30.5677 24.6263C31.1276 24.1315 31.7962 23.6596 32.0539 23.5779C32.3119 23.496 32.5228 23.3207 32.5228 23.1881C32.5228 23.0554 32.6972 22.9469 32.9105 22.9469C33.1237 22.9469 33.2982 22.8305 33.2982 22.6883C33.2982 22.5461 33.4633 22.4298 33.6649 22.4298C34.126 22.4298 35.6205 21.5911 35.6228 21.331C35.6236 21.2245 36.0314 21.1371 36.529 21.1371C37.0265 21.1371 37.4336 21.0208 37.4336 20.8786C37.4336 20.7364 37.5949 20.6201 37.7918 20.6201C37.9888 20.6201 38.4829 20.4463 38.8903 20.2338C39.2974 20.0216 39.8339 19.847 40.0828 19.846C40.3317 19.8452 40.5351 19.7281 40.5351 19.5859C40.5351 19.4437 40.9422 19.3274 41.4398 19.3274C41.9373 19.3274 42.3444 19.2111 42.3444 19.0689C42.3444 18.9267 42.5478 18.8067 42.7967 18.802C43.0456 18.7977 43.4749 18.6231 43.7507 18.4142C44.0267 18.2056 44.5142 18.0347 44.8339 18.0347C45.1539 18.0347 45.4873 17.9184 45.5752 17.7762C45.6631 17.634 46.4839 17.5177 47.3997 17.5177C48.3371 17.5177 49.0644 17.4047 49.0644 17.2591C49.0644 17.1169 49.4426 16.9988 49.9044 16.9967C51.0523 16.9913 51.6382 16.6099 50.831 16.3936C49.9797 16.1655 46.828 16.2446 45.4459 16.5288ZM47.2552 22.6883C47.2552 22.8305 47.4449 22.9469 47.677 22.9469C47.9088 22.9469 48.4614 23.3308 48.9047 23.8C49.348 24.2693 49.9169 24.732 50.1689 24.8285C50.4209 24.9246 50.7034 25.2095 50.7969 25.4616C50.8905 25.7137 51.1787 26.1082 51.4374 26.338C51.6959 26.5681 51.9112 26.9172 51.9158 27.1137C51.9202 27.3104 52.0947 27.6972 52.3035 27.973C52.5121 28.2491 52.6829 28.7434 52.6829 29.0718C52.6829 29.4001 52.7992 29.6687 52.9414 29.6687C53.0835 29.6687 53.1999 30.0661 53.1999 30.5521C53.1999 31.0379 53.3141 31.4741 53.4534 31.5217C53.8328 31.6507 53.8734 41.3798 53.495 41.506C53.3327 41.56 53.1999 41.9437 53.1999 42.3583C53.1999 42.7733 53.0835 43.1125 52.9414 43.1125C52.7992 43.1125 52.6829 43.2953 52.6829 43.5187C52.6829 43.7423 52.5377 44.0872 52.3599 44.2855C51.5927 45.1409 51.3906 45.4333 51.3906 45.687C51.3906 45.8351 51.2821 45.9564 51.1495 45.9564C51.0169 45.9564 50.8391 46.1756 50.754 46.4434C50.669 46.711 50.2541 47.2917 49.8321 47.7335C49.4097 48.1754 49.0644 48.6544 49.0644 48.7979C49.0644 48.9414 48.9399 49.0588 48.7876 49.0588C48.4444 49.0588 47.7721 49.7108 47.7721 50.0435C47.7721 50.1787 46.958 51.1317 45.9629 52.1612C44.9678 53.1907 44.1536 54.1353 44.1536 54.2605C44.1536 54.3856 44.0048 54.488 43.8231 54.488C43.6411 54.488 43.3247 54.7207 43.1198 55.005C42.9148 55.2894 42.5928 55.5221 42.4041 55.5221C42.2157 55.5221 41.7918 55.813 41.4625 56.1684C41.133 56.5239 40.7267 56.8148 40.5594 56.8148C40.3919 56.8148 40.0006 57.0519 39.6894 57.3419C39.3785 57.6317 38.8598 57.9353 38.5372 58.0162C38.2144 58.0971 37.9505 58.2672 37.9505 58.3939C37.9505 58.5208 37.6597 58.6245 37.3043 58.6245C36.949 58.6245 36.6582 58.7124 36.6582 58.8197C36.6582 59.0798 34.9609 59.6749 33.7489 59.8399C33.2149 59.9123 32.7138 60.0759 32.6352 60.2031C32.5566 60.3303 32.0255 60.4343 31.4553 60.4343C30.5298 60.4343 29.6797 60.8707 29.6797 61.3456C29.6797 61.4405 30.2904 61.4451 31.0366 61.3554C31.7828 61.266 33.1206 61.1284 34.0089 61.0498C34.8975 60.9715 35.6243 60.8009 35.6243 60.6708C35.6243 60.5408 36.0244 60.4343 36.5137 60.4343C37.003 60.4343 37.4695 60.327 37.5504 60.1956C37.6316 60.0643 38.0456 59.8805 38.4703 59.7871C38.8952 59.6938 39.2428 59.5105 39.2428 59.3797C39.2428 59.2486 39.5336 59.1416 39.889 59.1416C40.2444 59.1416 40.5351 59.0252 40.5351 58.883C40.5351 58.7409 40.7678 58.6245 41.0521 58.6245C41.3364 58.6245 41.569 58.5208 41.569 58.3939C41.569 58.2672 41.8598 58.0904 42.2152 58.0012C42.5705 57.912 42.8613 57.7248 42.8613 57.5855C42.8613 57.4459 43.0358 57.3318 43.249 57.3318C43.4622 57.3318 43.6367 57.2155 43.6367 57.0733C43.6367 56.9311 43.8055 56.8148 44.012 56.8148C44.2182 56.8148 44.7825 56.4076 45.2658 55.9099C45.7489 55.4122 46.2787 55.005 46.4431 55.005C46.7832 55.005 50.3568 51.4975 50.3568 51.1635C50.3568 51.0435 50.7057 50.58 51.1321 50.1335C51.5586 49.6873 51.9075 49.2325 51.9075 49.1231C51.9075 49.0138 52.1983 48.6105 52.5537 48.2271C52.9091 47.8439 53.1999 47.4088 53.1999 47.2604C53.1999 47.112 53.3162 46.9905 53.4583 46.9905C53.6005 46.9905 53.7168 46.7578 53.7168 46.4734C53.7168 46.189 53.8279 45.9564 53.9636 45.9564C54.0993 45.9564 54.28 45.52 54.3653 44.9869C54.4506 44.4538 54.6305 43.8154 54.7649 43.5686C54.8993 43.3216 55.0091 42.9434 55.0091 42.7283C55.0091 42.513 55.1254 42.3369 55.2676 42.3369C55.4097 42.3369 55.526 41.9801 55.526 41.5442C55.526 41.1083 55.6591 40.5029 55.822 40.1986C56.5826 38.7769 56.5798 30.494 55.8184 30.2401C55.6576 30.1866 55.526 29.8616 55.526 29.518C55.526 29.1744 55.4097 28.8931 55.2676 28.8931C55.1254 28.8931 55.0091 28.7029 55.0091 28.4704C55.0091 28.2378 54.7183 27.7781 54.3629 27.4485C54.0076 27.1191 53.7168 26.723 53.7168 26.5687C53.7168 26.0591 51.7987 24.3411 50.6798 23.8484C50.0756 23.5821 49.5814 23.2705 49.5814 23.1558C49.5814 23.0407 49.3488 22.9469 49.0644 22.9469C48.7801 22.9469 48.5475 22.8305 48.5475 22.6883C48.5475 22.5461 48.2567 22.4298 47.9014 22.4298C47.546 22.4298 47.2552 22.5461 47.2552 22.6883ZM49.5814 38.976C49.5814 39.1181 49.6977 39.2345 49.8398 39.2345C49.982 39.2345 50.0983 39.1181 50.0983 38.976C50.0983 38.8338 49.982 38.7174 49.8398 38.7174C49.6977 38.7174 49.5814 38.8338 49.5814 38.976ZM48.8709 39.834C48.7054 40.1443 48.4932 40.6014 48.3994 40.8503C48.3056 41.0993 48.126 41.3028 48.0003 41.3028C47.875 41.3028 47.7721 41.4855 47.7721 41.7089C47.7721 41.9325 47.6269 42.2774 47.449 42.4757C46.7623 43.2418 46.4798 43.613 46.4798 43.7503C46.4798 43.8286 46.1345 44.2544 45.7122 44.6963C45.2901 45.1381 44.8753 45.7188 44.7902 45.9864C44.7052 46.2542 44.4361 46.4734 44.1919 46.4734C43.9479 46.4734 43.5279 46.8517 43.2586 47.3137C42.7013 48.2695 41.8869 49.0588 41.4573 49.0588C41.2971 49.0588 40.9986 49.2915 40.7936 49.5758C40.5886 49.8602 40.2901 50.0929 40.1299 50.0929C39.9699 50.0929 39.5669 50.3287 39.2348 50.617C38.9024 50.9052 38.3612 51.2087 38.0322 51.2915C37.7029 51.3739 37.4336 51.5453 37.4336 51.672C37.4336 51.799 37.257 51.9026 37.0412 51.9026C36.8257 51.9026 36.2537 52.3098 35.7706 52.8075C35.2873 53.3052 34.7714 53.7124 34.6238 53.7124C34.4762 53.7124 34.0648 54.0032 33.7094 54.3587C33.354 54.7142 32.8252 55.005 32.5344 55.005C32.2436 55.005 32.0058 55.1214 32.0058 55.2636C32.0058 55.4058 31.829 55.5221 31.613 55.5221C31.3969 55.5221 30.7595 55.813 30.1966 56.1684C29.6337 56.5239 28.88 56.8148 28.5217 56.8148C28.1635 56.8148 27.8704 56.9259 27.8704 57.0617C27.8704 57.1974 27.439 57.3895 26.9118 57.4883C26.011 57.6573 25.9904 57.6819 26.5678 57.8957C27.2837 58.1607 30.1966 57.8887 30.1966 57.557C30.1966 57.4332 30.6037 57.3318 31.1012 57.3318C31.5988 57.3318 32.0058 57.2155 32.0058 57.0733C32.0058 56.9311 32.2966 56.8148 32.652 56.8148C33.0074 56.8148 33.2982 56.6984 33.2982 56.5562C33.2982 56.4141 33.4633 56.2977 33.6649 56.2977C34.0963 56.2977 35.7148 55.48 35.8396 55.1989C35.8872 55.0922 36.1488 55.005 36.4212 55.005C36.6939 55.005 36.9166 54.8887 36.9166 54.7465C36.9166 54.6043 37.1529 54.488 37.4416 54.488C37.7306 54.488 38.0337 54.3135 38.1154 54.1002C38.1973 53.8869 38.4462 53.7124 38.6685 53.7124C38.8911 53.7124 39.5744 53.1888 40.1875 52.549C40.8003 51.9091 41.4005 51.3856 41.5209 51.3856C41.6414 51.3856 42.0795 50.9673 42.4945 50.4556C42.9094 49.9442 43.8598 48.9099 44.6059 48.1567C45.3521 47.4039 45.9629 46.6006 45.9629 46.3721C45.9629 46.1435 46.0792 45.9564 46.2213 45.9564C46.3635 45.9564 46.4798 45.8098 46.4798 45.6306C46.4798 45.4515 46.7706 44.991 47.126 44.6076C47.4813 44.2244 47.7721 43.7893 47.7721 43.6409C47.7721 43.4925 47.8884 43.371 48.0306 43.371C48.1727 43.371 48.289 43.1383 48.289 42.854C48.289 42.5696 48.4002 42.3369 48.5359 42.3369C48.6716 42.3369 48.859 41.9297 48.9523 41.432C49.0456 40.9343 49.2255 40.5272 49.3516 40.5272C49.6364 40.5272 49.6574 39.5706 49.3764 39.3968C49.2637 39.3273 49.0363 39.524 48.8709 39.834ZM41.8275 42.5479C41.8275 42.6639 41.3793 43.0106 40.8313 43.3188C40.2837 43.6267 39.3242 44.3462 38.6993 44.9176C38.0743 45.4889 37.4175 45.9564 37.2397 45.9564C37.0622 45.9564 36.9166 46.1112 36.9166 46.3005C36.9166 46.4897 36.6259 46.8002 36.2705 46.9905C35.9151 47.1808 35.6243 47.4331 35.6243 47.5513C35.6243 47.6694 35.3917 47.7661 35.1074 47.7661C34.8231 47.7661 34.5905 47.8824 34.5905 48.0246C34.5905 48.1668 34.4429 48.2832 34.2627 48.2832C34.0826 48.2832 33.5073 48.574 32.9841 48.9295C32.4613 49.285 31.7944 49.5758 31.5026 49.5758C31.2108 49.5758 30.972 49.6922 30.972 49.8344C30.972 49.9766 30.7104 50.0965 30.3904 50.1009C30.0705 50.1053 29.2274 50.3951 28.5166 50.7449C27.8058 51.0947 26.9627 51.382 26.6427 51.3832C26.3227 51.3845 26.0612 51.5019 26.0612 51.6441C26.0612 51.7863 25.6774 51.9026 25.2082 51.9026C24.7391 51.9026 24.2447 52.013 24.1098 52.1477C23.6986 52.558 20.9162 52.9978 17.9842 53.1157C15.1796 53.2287 14.0374 53.7124 16.5756 53.7124C17.329 53.7124 18.0741 53.8411 18.2313 53.9983C18.6378 54.405 26.0612 53.867 26.0612 53.4308C26.0612 53.3013 26.4683 53.1953 26.9658 53.1953C27.4633 53.1953 27.8704 53.0947 27.8704 52.9719C27.8704 52.7108 29.8795 51.9026 30.5282 51.9026C30.7725 51.9026 30.972 51.7863 30.972 51.6441C30.972 51.5019 31.1754 51.382 31.4243 51.3773C31.6732 51.3729 32.1025 51.1984 32.3783 50.9895C32.6543 50.7809 33.0904 50.61 33.3475 50.61C33.6047 50.61 33.8151 50.4936 33.8151 50.3514C33.8151 50.2092 33.9895 50.0929 34.2028 50.0929C34.416 50.0929 34.5905 49.9766 34.5905 49.8344C34.5905 49.6922 34.7823 49.5758 35.0167 49.5758C35.2511 49.5758 35.8383 49.1686 36.3214 48.671C36.9345 48.0396 37.4307 47.7661 37.9629 47.7661C38.4687 47.7661 38.7259 47.6355 38.7259 47.3783C38.7259 47.165 38.8422 46.9905 38.9844 46.9905C39.1265 46.9905 39.2428 46.802 39.2428 46.5717C39.2428 46.3413 39.7662 45.6513 40.4059 45.0381C41.0456 44.4251 41.569 43.8491 41.569 43.758C41.569 43.667 41.7435 43.4181 41.9567 43.2048C42.4012 42.7601 42.4643 42.3369 42.0859 42.3369C41.9438 42.3369 41.8275 42.4318 41.8275 42.5479Z" fill="white"/>
</svg>
